 <svg class="sprite" display="none" xmlns="http://www.w3.org/2000/svg">
        <symbol id="facebook" viewBox="0 0 32 32">
          <g clip-path="url(#clip0)">
            <path
              d="M21.3293 5.31333H24.2507V0.225333C23.7467 0.156 22.0133 0 19.9947 0C15.7827 0 12.8973 2.64933 12.8973 7.51867V12H8.24933V17.688H12.8973V32H18.596V17.6893H23.056L23.764 12.0013H18.5947V8.08267C18.596 6.43867 19.0387 5.31333 21.3293 5.31333Z"
               />
          </g>
        </symbol>

        <symbol id="youtube" viewBox="0 0 32 32">
          <g clip-path="url(#clip0)">
            <path
              d="M31.292 7.90543L31.332 8.16677C30.9454 6.79477 29.9014 5.7361 28.5747 5.35077L28.5467 5.3441C26.052 4.66677 16.0134 4.66677 16.0134 4.66677C16.0134 4.66677 6.00003 4.65343 3.48003 5.3441C2.12803 5.7361 1.08269 6.79477 0.702693 8.13877L0.696026 8.16677C-0.235974 13.0348 -0.242641 18.8841 0.737359 24.0961L0.696026 23.8321C1.08269 25.2041 2.12669 26.2628 3.45336 26.6481L3.48136 26.6548C5.97336 27.3334 16.0147 27.3334 16.0147 27.3334C16.0147 27.3334 26.0267 27.3334 28.548 26.6548C29.9014 26.2628 30.9467 25.2041 31.3267 23.8601L31.3334 23.8321C31.7574 21.5681 32 18.9628 32 16.3014C32 16.2041 32 16.1054 31.9987 16.0068C32 15.9161 32 15.8081 32 15.7001C32 13.0374 31.7574 10.4321 31.292 7.90543ZM12.8107 20.8681V11.1441L21.1654 16.0134L12.8107 20.8681Z"
               />
          </g>
        </symbol>

        <symbol id="telegram" viewBox="0 0 32 32">
          <g clip-path="url(#clip0)">
            <path
              d="M12.556 20.2415L12.0267 27.6868C12.784 27.6868 13.112 27.3615 13.5053 26.9708L17.056 23.5775L24.4133 28.9655C25.7626 29.7175 26.7133 29.3215 27.0773 27.7241L31.9066 5.0948L31.908 5.09347C32.336 3.0988 31.1866 2.3188 29.872 2.80813L1.48533 13.6761C-0.452007 14.4281 -0.422674 15.5081 1.15599 15.9975L8.41332 18.2548L25.2706 7.7068C26.064 7.18147 26.7853 7.47213 26.192 7.99747L12.556 20.2415Z"
              />
          </g>
        </symbol>

        <symbol id="instagram" viewBox="0 0 32 32">
          <g clip-path="url(#clip0)">
            <path
              d="M16.0053 7.78394C11.468 7.78394 7.79468 11.4613 7.79468 15.9946C7.79468 20.5319 11.472 24.2053 16.0053 24.2053C20.5427 24.2053 24.216 20.5279 24.216 15.9946C24.216 11.4573 20.5387 7.78394 16.0053 7.78394ZM16.0053 21.3239C13.06 21.3239 10.676 18.9386 10.676 15.9946C10.676 13.0506 13.0613 10.6653 16.0053 10.6653C18.9493 10.6653 21.3347 13.0506 21.3347 15.9946C21.336 18.9386 18.9507 21.3239 16.0053 21.3239Z"
              />
            <path
              d="M22.5973 0.101248C19.6533 -0.0360854 12.3613 -0.0294187 9.41467 0.101248C6.82533 0.222581 4.54133 0.847914 2.7 2.68925C-0.377336 5.76658 0.0159978 9.91325 0.0159978 15.9946C0.0159978 22.2186 -0.330669 26.2692 2.7 29.2999C5.78933 32.3879 9.996 31.9839 16.0053 31.9839C22.1707 31.9839 24.2987 31.9879 26.4787 31.1439C29.4427 29.9932 31.68 27.3439 31.8987 22.5852C32.0373 19.6399 32.0293 12.3492 31.8987 9.40258C31.6347 3.78525 28.62 0.378581 22.5973 0.101248ZM27.2573 27.2639C25.24 29.2812 22.4413 29.1012 15.9667 29.1012C9.3 29.1012 6.62666 29.1999 4.676 27.2439C2.42933 25.0079 2.836 21.4172 2.836 15.9732C2.836 8.60658 2.08 3.30125 9.47333 2.92258C11.172 2.86258 11.672 2.84258 15.948 2.84258L16.008 2.88258C23.1133 2.88258 28.688 2.13858 29.0227 9.53058C29.0987 11.2172 29.116 11.7239 29.116 15.9932C29.1147 22.5826 29.24 25.2719 27.2573 27.2639Z"
               />
            <path
              d="M24.5413 9.37859C25.601 9.37859 26.46 8.51957 26.46 7.45992C26.46 6.40027 25.601 5.54126 24.5413 5.54126C23.4817 5.54126 22.6227 6.40027 22.6227 7.45992C22.6227 8.51957 23.4817 9.37859 24.5413 9.37859Z"
               />
          </g>
        </symbol>
      </svg>